<svg xmlns="http://www.w3.org/2000/svg" viewBox="0 0 29.578 29.659">
  <defs>
    <style>
      .cls-1 {
        fill: #999;
      }
    </style>
  </defs>
  <g id="alarm-clock" transform="translate(-0.08 -0.001)">
    <path id="Path_8" data-name="Path 8" class="cls-1" d="M32.726,22.293H29.084a2.037,2.037,0,0,0-1.458-1.458V15.663a.51.51,0,1,0-1.02,0v5.173a2.036,2.036,0,1,0,2.478,2.478h3.643a.51.51,0,0,0,0-1.02Zm-5.61,1.53a1.02,1.02,0,1,1,1.02-1.02A1.021,1.021,0,0,1,27.116,23.823Z" transform="translate(-12.248 -7.424)"/>
    <path id="Path_9" data-name="Path 9" class="cls-1" d="M25.636,4.98l2.089,2.089a.51.51,0,0,0,.721,0,4.142,4.142,0,1,0-5.858-5.858.51.51,0,0,0,0,.721l2.326,2.326-.867.867a13.737,13.737,0,0,0-18.359,0l-.867-.867L7.149,1.933a.51.51,0,0,0,0-.721A4.142,4.142,0,0,0,1.291,7.069a.51.51,0,0,0,.721,0L4.1,4.98l.855.855a13.748,13.748,0,0,0,2.936,21.41L6.348,28.789a.51.51,0,1,0,.721.721l1.76-1.76a13.739,13.739,0,0,0,12.08,0l1.76,1.76a.51.51,0,0,0,.721-.721l-1.544-1.544a13.748,13.748,0,0,0,2.936-21.41Zm2.089-3.047a3.128,3.128,0,0,1,.331,4.026L23.7,1.6A3.126,3.126,0,0,1,27.725,1.933ZM1.681,5.958A3.122,3.122,0,0,1,6.037,1.6ZM14.869,28.13A12.751,12.751,0,1,1,27.619,15.379,12.765,12.765,0,0,1,14.869,28.13Z" transform="translate(0 0)"/>
    <path id="Path_10" data-name="Path 10" class="cls-1" d="M27.947,13a11.814,11.814,0,0,0-4.253-4.253c-.008-.006-.013-.014-.022-.019s-.019-.005-.028-.01a11.687,11.687,0,0,0-11.674,0,.26.26,0,0,0-.028.01c-.009.005-.013.014-.022.019A11.81,11.81,0,0,0,7.668,13c-.006.009-.014.013-.019.022a.258.258,0,0,0-.009.028,11.687,11.687,0,0,0,0,11.674c0,.009,0,.019.009.028a.422.422,0,0,0,.026.034,11.82,11.82,0,0,0,4.246,4.241c.008.006.013.014.022.019s.028.011.041.017a11.689,11.689,0,0,0,11.649,0c.013-.006.028-.009.041-.017s.013-.014.022-.019a11.816,11.816,0,0,0,4.246-4.241.422.422,0,0,0,.026-.034.258.258,0,0,0,.009-.028,11.687,11.687,0,0,0,0-11.674c0-.009,0-.019-.009-.028S27.952,13,27.947,13ZM23.592,27.883l-.243-.421a.51.51,0,1,0-.883.51l.244.423a10.629,10.629,0,0,1-4.392,1.173v-.484a.51.51,0,1,0-1.02,0v.484a10.621,10.621,0,0,1-4.392-1.173l.244-.423a.51.51,0,1,0-.883-.51l-.243.421a10.776,10.776,0,0,1-3.215-3.215l.421-.243a.51.51,0,0,0-.51-.883l-.423.244a10.631,10.631,0,0,1-1.173-4.392h.484a.51.51,0,0,0,0-1.02H7.123A10.627,10.627,0,0,1,8.3,13.981l.423.244a.51.51,0,1,0,.51-.883L8.807,13.1a10.781,10.781,0,0,1,3.215-3.215l.243.421a.51.51,0,0,0,.883-.51L12.9,9.372A10.629,10.629,0,0,1,17.3,8.2v.484a.51.51,0,1,0,1.02,0V8.2a10.621,10.621,0,0,1,4.392,1.173l-.244.423a.51.51,0,1,0,.883.51l.243-.421A10.776,10.776,0,0,1,26.806,13.1l-.421.243a.51.51,0,1,0,.51.883l.423-.244a10.631,10.631,0,0,1,1.173,4.392h-.484a.51.51,0,0,0,0,1.02h.484a10.627,10.627,0,0,1-1.173,4.392l-.423-.244a.51.51,0,0,0-.51.883l.421.243A10.758,10.758,0,0,1,23.592,27.883Z" transform="translate(-2.939 -3.504)"/>
  </g>
</svg>
