<svg id="award_1_" data-name="award (1)" xmlns="http://www.w3.org/2000/svg" viewBox="0 0 34.925 42.517">
  <defs>
    <style>
      .cls-1 {
        fill: #ef2648;
      }

      .cls-2 {
        fill: #ffa511;
      }

      .cls-3 {
        fill: #ffdc13;
      }

      .cls-4 {
        fill: #f08015;
      }

      .cls-5 {
        fill: #e5af17;
      }

      .cls-6 {
        fill: #b20d24;
      }
    </style>
  </defs>
  <g id="Group_1" data-name="Group 1" transform="translate(0 31.195)">
    <path id="Path_1" data-name="Path 1" class="cls-1" d="M50.978,375.653l-5.263,6.767,6.074-.759,1.518,5.315,5.315-6.833.024-.031a23.281,23.281,0,0,0-3.441-2.861A23.492,23.492,0,0,0,50.978,375.653Z" transform="translate(-45.715 -375.653)"/>
    <path id="Path_2" data-name="Path 2" class="cls-1" d="M318.241,375.653a23.534,23.534,0,0,0-4.227,1.594,23.225,23.225,0,0,0-3.44,2.861l5.338,6.867,1.518-5.315,6.074.759Z" transform="translate(-288.58 -375.653)"/>
  </g>
  <path id="Path_3" data-name="Path 3" class="cls-2" d="M84.309,18.981c0-3.181,1.982-6.924.5-9.49C83.272,6.84,78.987,6.7,76.337,5.172,73.769,3.683,71.546,0,68.365,0s-5.4,3.684-7.972,5.17C57.743,6.7,53.458,6.84,51.926,9.488c-1.487,2.568.5,6.311.5,9.493s-1.982,6.924-.5,9.49c1.533,2.651,5.818,2.786,8.468,4.319,2.568,1.489,4.791,5.172,7.972,5.172s5.4-3.684,7.972-5.17c2.65-1.534,6.935-1.67,8.468-4.319C86.291,25.9,84.309,22.162,84.309,18.981Z" transform="translate(-50.903)"/>
  <ellipse id="Ellipse_2" data-name="Ellipse 2" class="cls-3" cx="12.907" cy="12.907" rx="12.907" ry="12.907" transform="translate(4.555 6.074)"/>
  <path id="Path_4" data-name="Path 4" class="cls-1" d="M171.967,131.6h-5.2l-1.608-4.948a.759.759,0,0,0-1.443,0L162.1,131.6h-5.2a.759.759,0,0,0-.446,1.373l4.209,3.059-1.608,4.949a.759.759,0,0,0,1.168.849l4.21-3.059,4.209,3.058a.759.759,0,0,0,1.168-.849l-1.608-4.949,4.209-3.059a.759.759,0,0,0-.446-1.373Z" transform="translate(-146.972 -115.651)"/>
  <path id="Path_5" data-name="Path 5" class="cls-4" d="M93.692,112.525c-.033-.057-.076-.106-.109-.159a36.489,36.489,0,0,1-3.956,6.006,12.9,12.9,0,0,1-21.41,12.852,36.636,36.636,0,0,1-6.909.662c-.082,0-.162-.005-.244-.006,1.706,2.291,5.694,2.489,8.216,3.948,2.568,1.485,4.791,5.169,7.972,5.169s5.4-3.684,7.972-5.17c2.65-1.534,6.935-1.67,8.468-4.319,1.487-2.568-.5-6.312-.5-9.493S95.179,115.092,93.692,112.525Z" transform="translate(-59.79 -103.035)"/>
  <path id="Path_6" data-name="Path 6" class="cls-5" d="M160.7,191.937l.89,2.738a.759.759,0,0,1-1.168.849l-2.551-1.854a36.2,36.2,0,0,1-10.7,3.872,12.9,12.9,0,0,0,21.413-12.854A36.636,36.636,0,0,1,160.7,191.937Z" transform="translate(-138.747 -169.35)"/>
  <g id="Group_2" data-name="Group 2" transform="translate(5.028 22.586)">
    <path id="Path_7" data-name="Path 7" class="cls-6" d="M279.7,274.729l-.89-2.738q-1.371.93-2.83,1.733l2.551,1.854a.759.759,0,0,0,1.168-.849Z" transform="translate(-261.885 -271.991)"/>
    <path id="Path_8" data-name="Path 8" class="cls-6" d="M317.051,380.125a13.223,13.223,0,0,1,5.687,1.291l-4.5-5.782a23.532,23.532,0,0,0-4.227,1.594,23.227,23.227,0,0,0-3.44,2.861l.963,1.24A13.2,13.2,0,0,1,317.051,380.125Z" transform="translate(-293.608 -367.027)"/>
    <path id="Path_9" data-name="Path 9" class="cls-6" d="M110.73,377.283a23.537,23.537,0,0,0-4.227-1.594l-.235.3a9.847,9.847,0,0,1,4.082,7.979,9.962,9.962,0,0,1-.076,1.184l3.872-4.981.024-.031A23.292,23.292,0,0,0,110.73,377.283Z" transform="translate(-106.268 -367.078)"/>
  </g>
</svg>
