<svg id="calendar_1_" data-name="calendar (1)" xmlns="http://www.w3.org/2000/svg" viewBox="0 0 29.659 29.659">
  <defs>
    <style>
      .cls-1 {
        fill: #999;
      }
    </style>
  </defs>
  <g id="Group_2" data-name="Group 2">
    <g id="Group_1" data-name="Group 1">
      <path id="Path_7" data-name="Path 7" class="cls-1" d="M26.183,2.317h-1.39V0H22.476V2.317H7.183V0H4.866V2.317H3.476A3.48,3.48,0,0,0,0,5.793V26.183a3.48,3.48,0,0,0,3.476,3.476H26.183a3.48,3.48,0,0,0,3.476-3.476V5.793A3.48,3.48,0,0,0,26.183,2.317Zm1.159,23.866a1.16,1.16,0,0,1-1.159,1.159H3.476a1.16,1.16,0,0,1-1.159-1.159V10.89H27.342Zm0-17.61H2.317V5.793A1.16,1.16,0,0,1,3.476,4.634h1.39V6.951H7.183V4.634H22.476V6.951h2.317V4.634h1.39a1.16,1.16,0,0,1,1.159,1.159Z"/>
    </g>
  </g>
  <g id="Group_4" data-name="Group 4" transform="translate(4.403 13.323)">
    <g id="Group_3" data-name="Group 3">
      <rect id="Rectangle_7" data-name="Rectangle 7" class="cls-1" width="2.317" height="2.317"/>
    </g>
  </g>
  <g id="Group_6" data-name="Group 6" transform="translate(9.037 13.323)">
    <g id="Group_5" data-name="Group 5">
      <rect id="Rectangle_8" data-name="Rectangle 8" class="cls-1" width="2.317" height="2.317"/>
    </g>
  </g>
  <g id="Group_8" data-name="Group 8" transform="translate(13.671 13.323)">
    <g id="Group_7" data-name="Group 7">
      <rect id="Rectangle_9" data-name="Rectangle 9" class="cls-1" width="2.317" height="2.317"/>
    </g>
  </g>
  <g id="Group_10" data-name="Group 10" transform="translate(18.305 13.323)">
    <g id="Group_9" data-name="Group 9">
      <rect id="Rectangle_10" data-name="Rectangle 10" class="cls-1" width="2.317" height="2.317"/>
    </g>
  </g>
  <g id="Group_12" data-name="Group 12" transform="translate(22.94 13.323)">
    <g id="Group_11" data-name="Group 11">
      <rect id="Rectangle_11" data-name="Rectangle 11" class="cls-1" width="2.317" height="2.317"/>
    </g>
  </g>
  <g id="Group_14" data-name="Group 14" transform="translate(4.403 17.958)">
    <g id="Group_13" data-name="Group 13">
      <rect id="Rectangle_12" data-name="Rectangle 12" class="cls-1" width="2.317" height="2.317"/>
    </g>
  </g>
  <g id="Group_16" data-name="Group 16" transform="translate(9.037 17.958)">
    <g id="Group_15" data-name="Group 15">
      <rect id="Rectangle_13" data-name="Rectangle 13" class="cls-1" width="2.317" height="2.317"/>
    </g>
  </g>
  <g id="Group_18" data-name="Group 18" transform="translate(13.671 17.958)">
    <g id="Group_17" data-name="Group 17">
      <rect id="Rectangle_14" data-name="Rectangle 14" class="cls-1" width="2.317" height="2.317"/>
    </g>
  </g>
  <g id="Group_20" data-name="Group 20" transform="translate(18.305 17.958)">
    <g id="Group_19" data-name="Group 19">
      <rect id="Rectangle_15" data-name="Rectangle 15" class="cls-1" width="2.317" height="2.317"/>
    </g>
  </g>
  <g id="Group_22" data-name="Group 22" transform="translate(4.403 22.592)">
    <g id="Group_21" data-name="Group 21">
      <rect id="Rectangle_16" data-name="Rectangle 16" class="cls-1" width="2.317" height="2.317"/>
    </g>
  </g>
  <g id="Group_24" data-name="Group 24" transform="translate(9.037 22.592)">
    <g id="Group_23" data-name="Group 23">
      <rect id="Rectangle_17" data-name="Rectangle 17" class="cls-1" width="2.317" height="2.317"/>
    </g>
  </g>
  <g id="Group_26" data-name="Group 26" transform="translate(13.671 22.592)">
    <g id="Group_25" data-name="Group 25">
      <rect id="Rectangle_18" data-name="Rectangle 18" class="cls-1" width="2.317" height="2.317"/>
    </g>
  </g>
  <g id="Group_28" data-name="Group 28" transform="translate(18.305 22.592)">
    <g id="Group_27" data-name="Group 27">
      <rect id="Rectangle_19" data-name="Rectangle 19" class="cls-1" width="2.317" height="2.317"/>
    </g>
  </g>
  <g id="Group_30" data-name="Group 30" transform="translate(22.94 17.958)">
    <g id="Group_29" data-name="Group 29">
      <rect id="Rectangle_20" data-name="Rectangle 20" class="cls-1" width="2.317" height="2.317"/>
    </g>
  </g>
</svg>
