<svg xmlns="http://www.w3.org/2000/svg" viewBox="0 0 52 51">
  <defs>
    <style>
      .cls-1 {
        fill: #707070;
      }

      .cls-2 {
        fill: #fff;
      }

      .cls-2, .cls-3 {
        stroke: #707070;
        stroke-width: 2px;
      }

      .cls-3, .cls-5 {
        fill: none;
      }

      .cls-4 {
        stroke: none;
      }
    </style>
  </defs>
  <g id="Group_72" data-name="Group 72" transform="translate(-114 -857)">
    <g id="calendar_1_" data-name="calendar (1)" transform="translate(114 857)">
      <g id="Group_5" data-name="Group 5">
        <g id="Group_4" data-name="Group 4">
          <path id="Path_8" data-name="Path 8" class="cls-1" d="M39.7,3.513H37.591V0H34.078V3.513H10.891V0H7.378V3.513H5.27A5.276,5.276,0,0,0,0,8.783V39.7a5.276,5.276,0,0,0,5.27,5.27H39.7a5.276,5.276,0,0,0,5.27-5.27V8.783A5.276,5.276,0,0,0,39.7,3.513ZM41.456,39.7A1.759,1.759,0,0,1,39.7,41.456H5.27A1.759,1.759,0,0,1,3.513,39.7V16.512H41.456Zm0-26.7H3.513V8.783A1.759,1.759,0,0,1,5.27,7.026H7.378V10.54h3.513V7.026H34.078V10.54h3.513V7.026H39.7a1.759,1.759,0,0,1,1.757,1.757Z" />
        </g>
      </g>
      <g id="Group_7" data-name="Group 7" transform="translate(6.675 20.201)">
        <g id="Group_6" data-name="Group 6">
          <rect id="Rectangle_16" data-name="Rectangle 16" class="cls-1" width="3.513" height="3.513"/>
        </g>
      </g>
      <g id="Group_9" data-name="Group 9" transform="translate(13.701 20.201)">
        <g id="Group_8" data-name="Group 8">
          <rect id="Rectangle_17" data-name="Rectangle 17" class="cls-1" width="3.513" height="3.513"/>
        </g>
      </g>
      <g id="Group_11" data-name="Group 11" transform="translate(20.728 20.201)">
        <g id="Group_10" data-name="Group 10">
          <rect id="Rectangle_18" data-name="Rectangle 18" class="cls-1" width="3.513" height="3.513"/>
        </g>
      </g>
      <g id="Group_13" data-name="Group 13" transform="translate(27.754 20.201)">
        <g id="Group_12" data-name="Group 12">
          <rect id="Rectangle_19" data-name="Rectangle 19" class="cls-1" width="3.513" height="3.513"/>
        </g>
      </g>
      <g id="Group_15" data-name="Group 15" transform="translate(34.781 20.201)">
        <g id="Group_14" data-name="Group 14">
          <rect id="Rectangle_20" data-name="Rectangle 20" class="cls-1" width="3.513" height="3.513"/>
        </g>
      </g>
      <g id="Group_17" data-name="Group 17" transform="translate(6.675 27.227)">
        <g id="Group_16" data-name="Group 16">
          <rect id="Rectangle_21" data-name="Rectangle 21" class="cls-1" width="3.513" height="3.513"/>
        </g>
      </g>
      <g id="Group_19" data-name="Group 19" transform="translate(13.701 27.227)">
        <g id="Group_18" data-name="Group 18">
          <rect id="Rectangle_22" data-name="Rectangle 22" class="cls-1" width="3.513" height="3.513"/>
        </g>
      </g>
      <g id="Group_21" data-name="Group 21" transform="translate(20.728 27.227)">
        <g id="Group_20" data-name="Group 20">
          <rect id="Rectangle_23" data-name="Rectangle 23" class="cls-1" width="3.513" height="3.513"/>
        </g>
      </g>
      <g id="Group_23" data-name="Group 23" transform="translate(27.754 27.227)">
        <g id="Group_22" data-name="Group 22">
          <rect id="Rectangle_24" data-name="Rectangle 24" class="cls-1" width="3.513" height="3.513"/>
        </g>
      </g>
      <g id="Group_25" data-name="Group 25" transform="translate(6.675 34.254)">
        <g id="Group_24" data-name="Group 24">
          <rect id="Rectangle_25" data-name="Rectangle 25" class="cls-1" width="3.513" height="3.513"/>
        </g>
      </g>
      <g id="Group_27" data-name="Group 27" transform="translate(13.701 34.254)">
        <g id="Group_26" data-name="Group 26">
          <rect id="Rectangle_26" data-name="Rectangle 26" class="cls-1" width="3.513" height="3.513"/>
        </g>
      </g>
      <g id="Group_29" data-name="Group 29" transform="translate(20.728 34.254)">
        <g id="Group_28" data-name="Group 28">
          <rect id="Rectangle_27" data-name="Rectangle 27" class="cls-1" width="3.513" height="3.513"/>
        </g>
      </g>
      <g id="Group_31" data-name="Group 31" transform="translate(27.754 34.254)">
        <g id="Group_30" data-name="Group 30">
          <rect id="Rectangle_28" data-name="Rectangle 28" class="cls-1" width="3.513" height="3.513"/>
        </g>
      </g>
      <g id="Group_33" data-name="Group 33" transform="translate(34.781 27.227)">
        <g id="Group_32" data-name="Group 32">
          <rect id="Rectangle_29" data-name="Rectangle 29" class="cls-1" width="3.513" height="3.513"/>
        </g>
      </g>
    </g>
    <g id="Ellipse_1" data-name="Ellipse 1" class="cls-2" transform="translate(146 888)">
      <circle class="cls-4" cx="10" cy="10" r="10"/>
      <circle class="cls-5" cx="10" cy="10" r="9"/>
    </g>
    <path id="Union_1" data-name="Union 1" class="cls-3" d="M597.361,309.361h0v0h0v0Z" transform="translate(-441.5 588.5)"/>
  </g>
</svg>
