<svg xmlns="http://www.w3.org/2000/svg" viewBox="0 0 121.215 139.329">
  <defs>
    <style>
      .cls-1 {
        fill: #edab00;
      }

      .cls-2 {
        fill: #173c53;
      }

      .cls-3 {
        fill: #fff;
      }

      .cls-4 {
        fill: #0f5089;
      }

      .cls-5 {
        fill: #2172b9;
      }
    </style>
  </defs>
  <g id="Group_12" data-name="Group 12" transform="translate(-395 -5814)">
    <g id="XMLID_43_" transform="translate(412.447 5876.03)">
      <path id="XMLID_45_" class="cls-1" d="M63.149,135.4,38.1,204.731l21.248-10.487L69.606,212.7,94.7,143.414Z" transform="translate(-38.1 -135.4)"/>
      <path id="XMLID_44_" class="cls-1" d="M141.152,135.4,166.2,204.731,144.952,193.6l-10.258,19.1L109.6,143.414Z" transform="translate(-76.858 -135.4)"/>
    </g>
    <path id="XMLID_42_" class="cls-2" d="M121.994,55.288c0,3.251-3.343,6.136-3.892,9.2-.55,3.16,1.6,7.006.5,9.983-1.1,3.022-5.22,4.579-6.823,7.327s-.916,7.144-2.931,9.571c-2.061,2.427-6.457,2.519-8.884,4.534s-3.251,6.365-6,7.968-6.915.137-9.937,1.236c-2.931,1.053-5.22,4.854-8.38,5.449-3.068.55-6.5-2.244-9.754-2.244s-6.686,2.793-9.754,2.244c-3.16-.55-5.449-4.35-8.38-5.449-3.022-1.1-7.19.321-9.937-1.236-2.748-1.6-3.572-5.953-6-7.968-2.427-2.061-6.869-2.106-8.884-4.534S21.615,84.6,20.012,81.8c-1.6-2.748-5.724-4.3-6.823-7.327-1.053-2.931,1.053-6.823.5-9.983-.55-3.068-3.892-6-3.892-9.2,0-3.251,3.343-6.136,3.892-9.2.55-3.16-1.6-7.006-.5-9.983,1.1-3.022,5.22-4.579,6.823-7.327s.916-7.144,2.931-9.571C25,16.776,29.4,16.684,31.827,14.669s3.251-6.365,6-7.968,6.915-.137,9.937-1.236c2.931-1.053,5.22-4.854,8.38-5.449,3.068-.55,6.5,2.244,9.754,2.244S72.583-.534,75.651.015c3.16.55,5.449,4.35,8.38,5.449,3.022,1.1,7.19-.321,9.937,1.236,2.748,1.6,3.572,5.953,6,7.968,2.427,2.061,6.869,2.106,8.884,4.534s1.328,6.777,2.931,9.571c1.6,2.748,5.724,4.3,6.823,7.327,1.053,2.931-1.053,6.823-.5,9.983C118.651,49.152,121.994,52.037,121.994,55.288Z" transform="translate(389.688 5814.057)"/>
    <path id="XMLID_41_" class="cls-1" d="M123.979,67.943c0,2.61-2.7,4.946-3.114,7.419-.458,2.564,1.282,5.678.412,8.06-.87,2.427-4.213,3.709-5.5,5.907-1.282,2.244-.733,5.77-2.381,7.693-1.649,1.969-5.22,2.015-7.19,3.663s-2.61,5.175-4.854,6.457c-2.2,1.282-5.587.137-8.014,1.007-2.381.87-4.213,3.938-6.777,4.4-2.473.412-5.266-1.832-7.876-1.832s-5.358,2.244-7.876,1.832c-2.564-.458-4.4-3.526-6.777-4.4-2.427-.87-5.816.275-8.014-1.007-2.244-1.282-2.885-4.808-4.854-6.457s-5.541-1.694-7.19-3.663-1.1-5.5-2.381-7.693-4.625-3.48-5.5-5.907c-.87-2.381.87-5.5.412-8.06C36.1,72.889,33.4,70.553,33.4,67.943S36.1,63,36.514,60.524c.458-2.564-1.282-5.678-.412-8.06.87-2.427,4.213-3.709,5.5-5.907,1.282-2.244.733-5.77,2.381-7.693,1.649-1.969,5.22-2.015,7.19-3.663,2.015-1.694,2.656-5.175,4.9-6.457,2.2-1.282,5.587-.137,8.014-1.007,2.381-.87,4.213-3.938,6.777-4.4,2.473-.412,5.266,1.832,7.876,1.832s5.358-2.244,7.876-1.832c2.564.458,4.4,3.526,6.777,4.4,2.427.87,5.816-.275,8.014,1.007,2.244,1.282,2.885,4.808,4.854,6.457s5.541,1.694,7.19,3.663,1.1,5.5,2.381,7.693,4.625,3.48,5.5,5.907c.87,2.381-.87,5.5-.412,8.06C121.277,63,123.979,65.333,123.979,67.943Z" transform="translate(376.895 5801.401)"/>
    <path id="XMLID_40_" class="cls-3" d="M125.157,75.374c0,2.244-2.335,4.259-2.7,6.365-.366,2.2,1.1,4.854.366,6.915-.778,2.061-3.618,3.16-4.717,5.083s-.641,4.946-2.061,6.64-4.488,1.74-6.182,3.16-2.244,4.442-4.167,5.541c-1.878,1.1-4.808.092-6.869.87-2.061.733-3.618,3.389-5.816,3.755-2.152.366-4.488-1.557-6.732-1.557s-4.625,1.923-6.732,1.557c-2.2-.366-3.755-3.022-5.816-3.755-2.061-.778-4.991.229-6.869-.87-1.923-1.1-2.473-4.121-4.167-5.541s-4.763-1.465-6.182-3.16-.916-4.717-2.061-6.64c-1.1-1.878-3.938-2.977-4.717-5.083-.733-2.061.733-4.717.366-6.915-.366-2.152-2.7-4.121-2.7-6.365s2.335-4.259,2.7-6.365c.366-2.2-1.1-4.854-.366-6.915.778-2.061,3.618-3.16,4.717-5.083s.641-4.946,2.061-6.64S61,48.631,62.7,47.211s2.244-4.442,4.167-5.541c1.878-1.1,4.808-.092,6.869-.87,2.061-.733,3.618-3.389,5.816-3.755,2.152-.366,4.488,1.557,6.732,1.557s4.625-1.923,6.732-1.557c2.2.366,3.755,3.022,5.816,3.755,2.061.778,4.991-.229,6.869.87,1.923,1.1,2.473,4.121,4.167,5.541s4.763,1.465,6.182,3.16.916,4.717,2.061,6.64c1.1,1.878,3.938,2.977,4.717,5.083.733,2.061-.733,4.717-.366,6.915C122.822,71.115,125.157,73.13,125.157,75.374Z" transform="translate(369.306 5793.97)"/>
    <g id="XMLID_8_" transform="translate(395 5893.02)">
      <g id="XMLID_37_" transform="translate(0 5.541)">
        <path id="XMLID_39_" class="cls-4" d="M23.538,222.122,0,223.771,6.548,212,0,201.149,23.538,199.5Z" transform="translate(0 -192.677)"/>
        <path id="XMLID_38_" class="cls-4" d="M213.3,208.871l23.538-1.649-6.548-10.853,6.548-11.769L213.3,186.249Z" transform="translate(-115.623 -184.6)"/>
      </g>
      <path id="XMLID_36_" class="cls-5" d="M123.369,195.122,25.6,201.991V179.323l97.769-6.823Z" transform="translate(-13.877 -172.5)"/>
      <g id="XMLID_9_" transform="translate(20.653 6.136)">
        <path id="XMLID_33_" class="cls-3" d="M51.1,197.1l1.74,11.54-3.114.229-.183-2.106-1.1.092-.183,2.107-3.16.229,1.557-11.769Zm-1.6,7.647c-.137-1.328-.321-2.931-.458-4.854-.321,2.244-.5,3.892-.6,4.946Z" transform="translate(-45.1 -191.971)"/>
        <path id="XMLID_31_" class="cls-3" d="M69.932,195.8v11.677l-2.656.183-1.557-5.175V207.8l-2.519.183V196.3l2.519-.183,1.694,5.129v-5.266Z" transform="translate(-54.911 -191.266)"/>
        <path id="XMLID_29_" class="cls-3" d="M87.332,194.5v11.677l-2.656.183-1.557-5.175V206.5l-2.519.183V195l2.519-.183,1.694,5.129v-5.266Z" transform="translate(-64.343 -190.562)"/>
        <path id="XMLID_27_" class="cls-3" d="M101.022,193.9v11.677L98,205.806V194.129Z" transform="translate(-73.775 -190.237)"/>
        <path id="XMLID_25_" class="cls-3" d="M113.622,192.6l-1.557,11.769-4.625.321-1.74-11.54,3.206-.229c.366,3.206.641,5.907.778,8.105.137-2.244.321-4.259.5-6.045l.229-2.2Z" transform="translate(-77.949 -189.532)"/>
        <path id="XMLID_23_" class="cls-3" d="M124.2,192.066l5.083-.366v2.335l-2.015.137v2.2l1.878-.137v2.2l-1.878.137v2.564l2.244-.137v2.335l-5.266.366V192.066Z" transform="translate(-87.977 -189.044)"/>
        <path id="XMLID_20_" class="cls-3" d="M137.6,191.348l2.152-.137a22.007,22.007,0,0,1,2.931-.046,1.821,1.821,0,0,1,1.236.778,3.663,3.663,0,0,1,.458,2.152,3.716,3.716,0,0,1-.321,1.878,1.92,1.92,0,0,1-1.328.641,1.929,1.929,0,0,1,1.191.5,1.336,1.336,0,0,1,.366.641,10.4,10.4,0,0,1,.092,1.74v3.068l-2.839.183v-3.892a2.673,2.673,0,0,0-.137-1.145c-.092-.137-.366-.183-.778-.183V202.8l-3.022.229Zm3.022,1.786v2.61a2.1,2.1,0,0,0,.733-.183c.137-.092.183-.412.183-.916V194a1.01,1.01,0,0,0-.183-.733A.847.847,0,0,0,140.622,193.134Z" transform="translate(-95.241 -188.737)"/>
        <path id="XMLID_18_" class="cls-3" d="M161.086,192.858l-2.839.183v-.87a2.484,2.484,0,0,0-.092-.778.451.451,0,0,0-.366-.137.44.44,0,0,0-.412.275,1.287,1.287,0,0,0-.137.687,2.008,2.008,0,0,0,.137.87,1.8,1.8,0,0,0,.87.641,8.03,8.03,0,0,1,2.564,1.786,4.337,4.337,0,0,1,.5,2.473,4.916,4.916,0,0,1-.275,1.878,2.173,2.173,0,0,1-1.145,1.053,4.319,4.319,0,0,1-1.969.55,4.081,4.081,0,0,1-2.061-.321,2.077,2.077,0,0,1-1.145-1.1,5.742,5.742,0,0,1-.275-2.015v-.778l2.839-.183v1.42a1.431,1.431,0,0,0,.137.824.348.348,0,0,0,.412.137.5.5,0,0,0,.458-.275,1.605,1.605,0,0,0,.137-.733,2.1,2.1,0,0,0-.275-1.328,11.3,11.3,0,0,0-1.42-.962q-1.1-.687-1.511-.962a2.274,2.274,0,0,1-.6-.916,3.5,3.5,0,0,1-.229-1.511,4.254,4.254,0,0,1,.321-1.969,2.718,2.718,0,0,1,1.1-1.053,4.5,4.5,0,0,1,1.832-.458,5.428,5.428,0,0,1,2.015.229,2,2,0,0,1,1.1.87,4.825,4.825,0,0,1,.275,1.969v.5Z" transform="translate(-104.348 -187.729)"/>
        <path id="XMLID_15_" class="cls-3" d="M176,188.4l1.74,11.54-3.114.229-.183-2.106-1.1.092-.183,2.107-3.16.229,1.557-11.769ZM174.35,196c-.137-1.328-.321-2.931-.458-4.854-.321,2.244-.5,3.892-.6,4.946Z" transform="translate(-112.804 -187.255)"/>
        <path id="XMLID_12_" class="cls-3" d="M188,187.848l2.152-.137a22.005,22.005,0,0,1,2.931-.046,1.821,1.821,0,0,1,1.236.778,3.663,3.663,0,0,1,.458,2.152,3.716,3.716,0,0,1-.321,1.878,1.92,1.92,0,0,1-1.328.641,1.929,1.929,0,0,1,1.191.5,1.336,1.336,0,0,1,.366.641,10.4,10.4,0,0,1,.092,1.74v3.068l-2.839.183v-3.892a2.674,2.674,0,0,0-.137-1.145c-.092-.137-.366-.183-.778-.183V199.3l-3.022.229Zm3.022,1.786v2.61a2.1,2.1,0,0,0,.733-.183c.137-.092.183-.412.183-.916V190.5a1.01,1.01,0,0,0-.183-.733A.847.847,0,0,0,191.022,189.634Z" transform="translate(-122.561 -186.84)"/>
        <path id="XMLID_10_" class="cls-3" d="M211.044,185.9l-2.2,7.6v4.213l-2.793.183v-4.213L203.9,186.4l2.793-.183a38.177,38.177,0,0,1,.733,4.534q.275-1.855.824-4.671Z" transform="translate(-131.18 -185.9)"/>
      </g>
    </g>
    <g id="XMLID_2_" transform="translate(426.781 5845.288)">
      <path id="XMLID_6_" class="cls-2" d="M93.075,107.932l-1.007,7.144L69.4,117.045l.824-5.953c8.243-11.723,13.234-18.958,14.837-21.706s2.564-4.854,2.748-6.365a3.965,3.965,0,0,0-.229-2.473,1.674,1.674,0,0,0-1.649-.687,2.339,2.339,0,0,0-1.878,1.1,9.667,9.667,0,0,0-1.1,3.755l-.55,3.984-9.25.824.229-1.511a32.673,32.673,0,0,1,1.145-5.587,13.271,13.271,0,0,1,6.411-7.464A14.742,14.742,0,0,1,86.481,73.5c4.121-.366,7.052.412,8.884,2.29s2.519,4.4,2.061,7.556a21.982,21.982,0,0,1-2.839,7.739q-2.335,4.19-12.822,17.905Z" transform="translate(-69.4 -71.053)"/>
      <path id="XMLID_3_" class="cls-2" d="M157.561,82.112l-1.923,13.967a37.387,37.387,0,0,1-1.465,6.961,12.8,12.8,0,0,1-2.7,4.259,12.046,12.046,0,0,1-4.259,3.068,19.31,19.31,0,0,1-11.219.962,6.123,6.123,0,0,1-3.526-2.335,8.8,8.8,0,0,1-1.511-3.663,23.277,23.277,0,0,1,.275-6.411l2.015-14.608a32.4,32.4,0,0,1,2.2-8.7,11.676,11.676,0,0,1,4.534-4.946,15.919,15.919,0,0,1,7.327-2.335,13.487,13.487,0,0,1,5.907.687,6.707,6.707,0,0,1,4.854,6.319A35.842,35.842,0,0,1,157.561,82.112Zm-9.8-2.61a15.033,15.033,0,0,0,.275-4.121q-.206-.824-1.374-.687a1.888,1.888,0,0,0-1.649,1.007,16.258,16.258,0,0,0-.962,4.167l-2.839,20.424a16.866,16.866,0,0,0-.275,4.35c.137.458.641.687,1.374.641a1.888,1.888,0,0,0,1.649-1.007,14.006,14.006,0,0,0,.916-3.984Z" transform="translate(-102.7 -68.267)"/>
    </g>
  </g>
</svg>
