<svg xmlns="http://www.w3.org/2000/svg" viewBox="0 0 57 60.057">
  <defs>
    <style>
      .cls-1 {
        fill: #ef9645;
      }

      .cls-2 {
        fill: #ffdc5d;
      }

      .cls-3 {
        fill: #ffac33;
      }
    </style>
  </defs>
  <g id="clapping" transform="translate(-12.909 45.001)">
    <g id="Group_52" data-name="Group 52" transform="translate(12.909 -45.001)">
      <g id="Group_51" data-name="Group 51" transform="translate(0 0)">
        <path id="Path_26" data-name="Path 26" class="cls-1" d="M14.006,58.818a3.2,3.2,0,1,1,4.35-4.693l10.9,10.093c-.172-.162.758-1.48.62-1.608L14.746,48.6a3.2,3.2,0,1,1,4.35-4.693L33.322,57.086c-.034-.03,1.025-1.231,1.005-1.249L17.835,40.56a3.2,3.2,0,1,1,4.35-4.693L38.675,51.143c.02.017,1.15-1.118,1.184-1.086L24.444,35.779a3.2,3.2,0,1,1,4.35-4.693l16.3,15.1c4.826,4.471,5.914,3.3,5.914,3.3l-4.358-4.036-5.033-4.659a3.2,3.2,0,0,1,4.349-4.7L58.875,48.046A19.2,19.2,0,0,1,32.783,76.213a10.287,10.287,0,0,1-1.116-1.152l-.056.064Z" transform="translate(-12.909 -21.268)"/>
        <path id="Path_27" data-name="Path 27" class="cls-2" d="M55.251,31.09a3.2,3.2,0,0,1,4.348-4.7l10.9,10.1c-.173-.162.758-1.48.62-1.608L55.991,20.874a3.2,3.2,0,0,1,4.348-4.695L74.565,29.357c-.032-.032,1.027-1.231,1.007-1.249L59.08,12.83a3.2,3.2,0,1,1,4.348-4.693L79.918,23.412c.022.02,1.15-1.115,1.184-1.084L65.689,8.049a3.132,3.132,0,0,1-.173-4.52,3.133,3.133,0,0,1,4.521-.173l16.3,15.1c4.824,4.469,5.914,3.3,5.914,3.3l-4.36-4.036L82.86,13.054a3.2,3.2,0,1,1,4.35-4.695l12.909,11.958A19.2,19.2,0,1,1,74.028,48.482a10.187,10.187,0,0,1-1.116-1.148l-.057.064Z" transform="translate(-49.27 3.178)"/>
        <g id="Group_50" data-name="Group 50" transform="translate(28.499)">
          <path id="Path_28" data-name="Path 28" class="cls-3" d="M334.111-26.554a1.677,1.677,0,0,1-1.027-.35,1.683,1.683,0,0,1-.3-2.363l5.016-6.491a1.68,1.68,0,0,1,2.361-.3,1.683,1.683,0,0,1,.3,2.361l-5.016,6.491a1.678,1.678,0,0,1-1.334.655" transform="translate(-323.096 37.43)"/>
          <path id="Path_29" data-name="Path 29" class="cls-3" d="M255.293-33.214a1.684,1.684,0,0,1-1.684-1.684v-8.42A1.684,1.684,0,0,1,255.293-45a1.683,1.683,0,0,1,1.684,1.684v8.42a1.683,1.683,0,0,1-1.684,1.684" transform="translate(-253.609 45.001)"/>
          <path id="Path_30" data-name="Path 30" class="cls-3" d="M389.224,46.5a1.685,1.685,0,0,1-.576-3.267l7.717-2.807a1.684,1.684,0,0,1,1.152,3.166L389.8,46.4a1.688,1.688,0,0,1-.576.1" transform="translate(-371.682 -30.223)"/>
        </g>
      </g>
    </g>
  </g>
</svg>
