<svg xmlns="http://www.w3.org/2000/svg" viewBox="0 0 26.991 24.88">
  <defs>
    <style>
      .cls-1 {
        fill: #2190ff;
      }
    </style>
  </defs>
  <path id="filter" class="cls-1" d="M26.913,10.152a.818.818,0,0,0-.74-.469H.818a.818.818,0,0,0-.631,1.338L9.933,22.843v10.9a.818.818,0,0,0,1.181.733l5.476-2.714a.818.818,0,0,0,.455-.732l.011-8.187L26.8,11.021A.818.818,0,0,0,26.913,10.152ZM15.608,22.029a.818.818,0,0,0-.187.519l-.01,7.974-3.841,1.9V22.549a.818.818,0,0,0-.187-.52l-8.83-10.71H24.438Z" transform="translate(0 -9.683)"/>
</svg>
